<?xml version="1.0" encoding="UTF-8"?>
<svg xmlns="http://www.w3.org/2000/svg" viewBox="0 0 400 480" fill="none">
  <defs>
    <linearGradient id="gold" x1="0%" y1="0%" x2="100%" y2="100%">
      <stop offset="0%" stop-color="#e8c878"/>
      <stop offset="50%" stop-color="#c5a059"/>
      <stop offset="100%" stop-color="#8a7340"/>
    </linearGradient>
    <radialGradient id="glow" cx="50%" cy="30%" r="60%">
      <stop offset="0%" stop-color="#c5a059" stop-opacity="0.15"/>
      <stop offset="100%" stop-color="#0a0a0b" stop-opacity="0"/>
    </radialGradient>
  </defs>
  <rect width="400" height="480" fill="#0a0a0b"/>
  <rect x="20" y="20" width="360" height="440" stroke="url(#gold)" stroke-width="1" fill="none" opacity="0.4"/>
  <rect x="28" y="28" width="344" height="424" stroke="url(#gold)" stroke-width="0.5" fill="url(#glow)"/>
  <path d="M155 95c-18 8-30 26-30 46 0 30 24 54 54 54 12 0 23-4 32-11-28-4-48-28-48-57 0-14 5-27 14-36-8-2-16-4-22-4z" fill="url(#gold)" opacity="0.7"/>
  <circle cx="200" cy="130" r="52" stroke="url(#gold)" stroke-width="1.2" fill="none"/>
  <text x="200" y="148" text-anchor="middle" font-family="Georgia, serif" font-size="52" font-style="italic" fill="url(#gold)">NA</text>
  <g transform="translate(140, 200)" fill="url(#gold)" opacity="0.6">
    <circle cx="0" cy="0" r="4" fill="#0a0a0b" stroke="url(#gold)" stroke-width="0.8"/>
    <circle cx="24" cy="0" r="4" fill="url(#gold)" opacity="0.3"/>
    <circle cx="48" cy="0" r="4" fill="url(#gold)" opacity="0.5"/>
    <circle cx="72" cy="0" r="4" fill="url(#gold)"/>
    <circle cx="96" cy="0" r="4" fill="url(#gold)" opacity="0.5"/>
    <circle cx="120" cy="0" r="4" fill="url(#gold)" opacity="0.3"/>
  </g>
  <text x="200" y="280" text-anchor="middle" font-family="Georgia, serif" font-size="42" letter-spacing="12" fill="url(#gold)">NOCTURNE</text>
  <line x1="100" y1="300" x2="170" y2="300" stroke="url(#gold)" stroke-width="0.8"/>
  <polygon points="200,295 204,305 196,305" fill="url(#gold)"/>
  <line x1="230" y1="300" x2="300" y2="300" stroke="url(#gold)" stroke-width="0.8"/>
  <text x="200" y="335" text-anchor="middle" font-family="Georgia, serif" font-size="22" letter-spacing="8" fill="url(#gold)" opacity="0.9">ATELIER</text>
  <text x="200" y="400" text-anchor="middle" font-family="Georgia, serif" font-size="11" letter-spacing="4" fill="url(#gold)" opacity="0.55">GOTHIC &#183; AMBIENT &#183; ARCANE</text>
  <path d="M36 36h20M36 36v20" stroke="url(#gold)" stroke-width="0.6" opacity="0.5"/>
  <path d="M364 36h-20M364 36v20" stroke="url(#gold)" stroke-width="0.6" opacity="0.5"/>
  <path d="M36 444h20M36 444v-20" stroke="url(#gold)" stroke-width="0.6" opacity="0.5"/>
  <path d="M364 444h-20M364 444v-20" stroke="url(#gold)" stroke-width="0.6" opacity="0.5"/>
</svg>
